<svg viewBox="0 0 98 98" fill="none" xmlns="http://www.w3.org/2000/svg"><path fill-rule="evenodd" clip-rule="evenodd" d="M19.6 23.8a4.2 4.2 0 0 1 4.2-4.2h12.6a4.2 4.2 0 0 1 4.2 4.2v12.6a4.2 4.2 0 0 1-4.2 4.2H23.8a4.2 4.2 0 0 1-4.2-4.2V23.8Zm8.4 8.4V28h4.2v4.2H28ZM19.6 61.6a4.2 4.2 0 0 1 4.2-4.2h12.6a4.2 4.2 0 0 1 4.2 4.2v12.6a4.2 4.2 0 0 1-4.2 4.2H23.8a4.2 4.2 0 0 1-4.2-4.2V61.6ZM28 70v-4.2h4.2V70H28ZM61.6 19.6a4.2 4.2 0 0 0-4.2 4.2v12.6a4.2 4.2 0 0 0 4.2 4.2h12.6a4.2 4.2 0 0 0 4.2-4.2V23.8a4.2 4.2 0 0 0-4.2-4.2H61.6Zm4.2 8.4v4.2H70V28h-4.2Z" fill="#323E48"/><path d="M53.2 23.8a4.2 4.2 0 1 0-8.4 0V28a4.2 4.2 0 1 0 8.4 0v-4.2ZM49 36.4a4.2 4.2 0 0 1 4.2 4.2v4.2h8.4a4.2 4.2 0 1 1 0 8.4H49a4.2 4.2 0 0 1-4.2-4.2v-8.4a4.2 4.2 0 0 1 4.2-4.2ZM74.2 44.8a4.2 4.2 0 1 0 0 8.4 4.2 4.2 0 0 0 0-8.4ZM44.8 61.6a4.2 4.2 0 0 1 4.2-4.2h4.2a4.2 4.2 0 1 1 0 8.4v8.4a4.2 4.2 0 1 1-8.4 0V61.6ZM36.4 53.2a4.2 4.2 0 1 0 0-8.4H23.8a4.2 4.2 0 1 0 0 8.4h12.6ZM78.4 61.6a4.2 4.2 0 0 1-4.2 4.2h-8.4a4.2 4.2 0 1 1 0-8.4h8.4a4.2 4.2 0 0 1 4.2 4.2ZM74.2 78.4a4.2 4.2 0 1 0 0-8.4H61.6a4.2 4.2 0 1 0 0 8.4h12.6Z" fill="#323E48"/><path d="M78.597 92.823c0 .604.49 1.094 1.093 1.094h7.88a6.346 6.346 0 0 0 6.346-6.347v-7.742a1.093 1.093 0 0 0-2.186 0v7.742a4.16 4.16 0 0 1-4.16 4.16h-7.88c-.604 0-1.093.49-1.093 1.093Zm0-87.647c0 .604.49 1.093 1.093 1.093h7.88a4.16 4.16 0 0 1 4.16 4.16v8.019a1.093 1.093 0 0 0 2.186 0V10.43a6.346 6.346 0 0 0-6.346-6.347h-7.88c-.604 0-1.093.49-1.093 1.093Zm-59.194 0c0-.603-.49-1.093-1.093-1.093h-7.88a6.346 6.346 0 0 0-6.347 6.347v8.018a1.093 1.093 0 0 0 2.186 0V10.43a4.16 4.16 0 0 1 4.16-4.16h7.88c.604 0 1.094-.49 1.094-1.094Zm0 87.647c0-.603-.49-1.093-1.093-1.093h-7.88a4.16 4.16 0 0 1-4.16-4.16v-7.742a1.093 1.093 0 0 0-2.187 0v7.742a6.346 6.346 0 0 0 6.347 6.347h7.88c.603 0 1.093-.49 1.093-1.094Z" fill="#323E48" stroke="#323E48" stroke-width="1.633"/></svg>
