<svg width="22" height="24" viewBox="0 0 22 24" fill="none" xmlns="http://www.w3.org/2000/svg">
<g clip-path="url(#clip0_2245_2086)">
<path d="M0.408203 5.99646V18.0965L10.6442 23.576L20.7442 18.096V5.99696L10.6447 0.423462L2.8267 4.67996L0.408203 5.99646Z" fill="url(#paint0_linear_2245_2086)"/>
<mask id="mask0_2245_2086" style="mask-type:luminance" maskUnits="userSpaceOnUse" x="0" y="0" width="22" height="24">
<path d="M21.152 0H0V24H21.152V0Z" fill="white"/>
</mask>
<g mask="url(#mask0_2245_2086)">
<path d="M10.576 11.449V23.5765M10.576 11.449L0.373047 5.91797M10.576 11.449L20.779 5.91797" stroke="#040405" stroke-width="2" stroke-miterlimit="10"/>
<path d="M20.779 18.0825V5.91745L10.576 0.42395L0.373047 5.91745V18.0825L10.576 23.5765L20.779 18.0825Z" stroke="#040405" stroke-width="2" stroke-miterlimit="10"/>
<path d="M12.0852 9.37544L9.53516 7.74244L10.0102 7.48644L12.5632 9.12444L12.0852 9.37544ZM12.9912 8.89644L11.3982 6.73994L11.8592 6.49244L13.4502 8.65494L12.9902 8.89644H12.9912ZM15.8812 7.43694C15.7482 7.50779 15.6083 7.56475 15.4637 7.60694C15.2411 7.67363 15.0105 7.70946 14.7782 7.71344C14.7007 7.71544 14.6232 7.71344 14.5472 7.70994C14.3123 7.69489 14.0802 7.65089 13.8562 7.57894C13.7093 7.53155 13.5671 7.47097 13.4312 7.39794C13.3634 7.36105 13.2967 7.3222 13.2312 7.28144C13.1125 7.20697 13.0019 7.12034 12.9012 7.02294C12.8589 6.9805 12.8198 6.93505 12.7842 6.88694C12.7513 6.84262 12.7222 6.79562 12.6972 6.74644C12.6745 6.70105 12.6566 6.65347 12.6437 6.60444C12.6186 6.51341 12.6162 6.41762 12.6367 6.32544C12.6472 6.27794 12.6632 6.23144 12.6842 6.18744C12.7067 6.13994 12.7342 6.09544 12.7657 6.05394C12.8007 6.00894 12.8387 5.96644 12.8807 5.92794C12.9282 5.88494 12.9782 5.84545 13.0307 5.80945C13.0897 5.76877 13.151 5.73138 13.2142 5.69745C13.4155 5.58936 13.6322 5.51248 13.8567 5.46944C14.0113 5.43867 14.1685 5.42243 14.3262 5.42094C14.4052 5.41944 14.4842 5.42094 14.5627 5.42744C14.6412 5.43394 14.7202 5.44144 14.7987 5.45344C14.9565 5.47853 15.1122 5.51598 15.2642 5.56544C15.3392 5.59044 15.4142 5.61794 15.4837 5.64844C15.694 5.73818 15.8916 5.855 16.0717 5.99594C16.1232 6.03744 16.1722 6.08194 16.2187 6.12894C16.2607 6.17144 16.2987 6.21694 16.3337 6.26494C16.3662 6.30894 16.3942 6.35595 16.4182 6.40495C16.4397 6.44995 16.4562 6.49694 16.4682 6.54544C16.5033 6.68412 16.4858 6.83088 16.4192 6.95744C16.3957 7.00394 16.3677 7.04744 16.3352 7.08844C16.2997 7.13344 16.2602 7.17444 16.2182 7.21244C16.1709 7.25464 16.1207 7.29356 16.0682 7.32894C16.0082 7.36894 15.9457 7.40494 15.8817 7.43794L15.8812 7.43694ZM15.4632 7.16894C15.5032 7.14844 15.5412 7.12494 15.5782 7.09994C15.6112 7.07744 15.6422 7.05244 15.6717 7.02544C15.6982 7.00144 15.7217 6.97444 15.7437 6.94594C15.7632 6.9196 15.78 6.89128 15.7937 6.86144C15.8191 6.80551 15.8307 6.74431 15.8277 6.68294C15.8256 6.65173 15.8199 6.62085 15.8107 6.59094C15.8006 6.55833 15.7872 6.52684 15.7707 6.49695C15.7526 6.46394 15.7319 6.4325 15.7087 6.40294C15.6831 6.37029 15.6554 6.33939 15.6257 6.31044C15.5927 6.27808 15.558 6.24753 15.5217 6.21894C15.3106 6.05419 15.0679 5.93471 14.8087 5.86794C14.7059 5.84129 14.6013 5.82257 14.4957 5.81194C14.4438 5.80695 14.3918 5.80395 14.3397 5.80294C14.2877 5.80194 14.2362 5.80294 14.1847 5.80844C14.0851 5.8159 13.9866 5.83349 13.8907 5.86094C13.7553 5.89952 13.6269 5.95926 13.5102 6.03794C13.4776 6.06036 13.4469 6.08527 13.4182 6.11244C13.3927 6.13744 13.3692 6.16444 13.3492 6.19344C13.3129 6.24616 13.2888 6.30628 13.2787 6.36944C13.2723 6.432 13.2791 6.49519 13.2987 6.55494C13.3097 6.58794 13.3237 6.61994 13.3407 6.65044C13.3592 6.68394 13.3807 6.71544 13.4047 6.74594C13.4307 6.77894 13.4587 6.80994 13.4892 6.83944C13.5227 6.87194 13.5577 6.90245 13.5942 6.93095C13.6773 6.99517 13.7656 7.05237 13.8582 7.10195C13.9052 7.12745 13.9527 7.15194 14.0012 7.17194C14.0502 7.19394 14.1002 7.21344 14.1512 7.22994C14.2989 7.28156 14.4523 7.31481 14.6082 7.32894C14.6612 7.33344 14.7082 7.33544 14.7582 7.33544C14.8082 7.33544 14.8582 7.33544 14.9082 7.32844C14.9582 7.32144 15.0082 7.31694 15.0582 7.30794C15.1979 7.28179 15.333 7.23512 15.4592 7.16944L15.4632 7.16894Z" fill="#040405"/>
</g>
</g>
<defs>
<linearGradient id="paint0_linear_2245_2086" x1="10.5762" y1="0.423462" x2="10.5762" y2="23.576" gradientUnits="userSpaceOnUse">
<stop stop-color="white"/>
<stop offset="1" stop-color="#A8B8CE"/>
</linearGradient>
<clipPath id="clip0_2245_2086">
<rect width="21.5" height="24" fill="white"/>
</clipPath>
</defs>
</svg>
