<svg xmlns="http://www.w3.org/2000/svg" fill="none" viewBox="0 0 24 24">
    <path fill="#323E48" fill-rule="evenodd"
          d="m12.053 1 10.053 5.329v11.828l-10.053 5.33L2 18.157V6.33L12.053 1Zm0 2.167L4.996 6.908l7.057 3.766 7.057-3.766-7.057-3.74ZM3.915 17.005V8.502l7.18 3.832v8.478l-7.18-3.807Zm16.276 0-7.18 3.807v-8.478L20.19 8.5v8.504Zm-9.762-9.054 2.273 1.433.427-.22-2.276-1.437-.424.224Zm3.08 1.013h.001Zm0 0 .41-.212-1.418-1.898-.411.217 1.42 1.893Zm2.205-1.132c.13-.037.254-.087.372-.149v.001c.058-.029.114-.06.167-.096.047-.03.092-.065.134-.102a.907.907 0 0 0 .104-.109.674.674 0 0 0 .075-.115.501.501 0 0 0 .044-.361.636.636 0 0 0-.12-.246 1.053 1.053 0 0 0-.103-.12 1.574 1.574 0 0 0-.13-.117 2.353 2.353 0 0 0-.72-.377 2.758 2.758 0 0 0-.626-.121 2.287 2.287 0 0 0-.63.037 2.033 2.033 0 0 0-.736.298 1.267 1.267 0 0 0-.133.104.901.901 0 0 0-.103.11.664.664 0 0 0-.115.239.5.5 0 0 0 .006.244.642.642 0 0 0 .048.125 1.075 1.075 0 0 0 .182.243c.09.085.188.161.294.227a2.296 2.296 0 0 0 .557.261c.2.063.407.102.616.115.068.003.137.005.206.003.207-.004.413-.035.611-.094Zm.102-.445a.99.99 0 0 1-.102.06l-.004.001a1.301 1.301 0 0 1-.491.14c-.045.006-.09.006-.134.006a1.722 1.722 0 0 1-.802-.205 1.688 1.688 0 0 1-.235-.15 1.13 1.13 0 0 1-.17-.162.62.62 0 0 1-.094-.168.39.39 0 0 1-.018-.163.374.374 0 0 1 .063-.154.486.486 0 0 1 .144-.137c.104-.069.218-.121.339-.155a1.326 1.326 0 0 1 .4-.05 1.849 1.849 0 0 1 .418.056c.231.059.448.164.636.308a1.155 1.155 0 0 1 .167.162.606.606 0 0 1 .09.165.333.333 0 0 1-.015.237.42.42 0 0 1-.108.144.748.748 0 0 1-.084.065Z"
          clip-rule="evenodd"/>
</svg>
