<svg viewBox="0 0 765 482" fill="none" xmlns="http://www.w3.org/2000/svg"><ellipse cx="383" cy="240.928" rx="342" ry="240.928" fill="url(#a)"/><path d="m431.947 229.738-191.314-80.959-43.853 6.265 198.543 81.441m36.624-6.747-36.624 6.747m36.624-6.747L281.595 383.464l-49.636 9.156 163.364-156.135" stroke="url(#b)"/><path d="m196.298 155.044-12.529 2.409m0 0-36.143 6.747 196.134 84.332 33.733-8.674-193.724-82.405Z" stroke="url(#c)"/><path d="m232.923 392.138-11.566 2.754m0 0-29.878 5.921 152.762-152.281 33.252-7.71-156.136 154.07Z" stroke="url(#d)"/><path d="m466.162 245.641-31.805 7.71-24.095 24.577 36.142-9.156 19.758-23.131Z" stroke="url(#e)"/><path d="m570.253 324.673-124.331-55.901 21.204-23.613 159.991 67.948-56.864 11.566Z" stroke="url(#f)"/><path d="m539.411 332.865-129.149-53.973 36.142-10.12 123.848 55.9-30.841 8.193Z" stroke="url(#g)"/><path d="m434.839 253.351 157.099 66.984" stroke="url(#h)"/><path d="m429.056 185.403-37.106 8.674 33.251 12.048 36.142-7.229-32.287-13.493Z" stroke="url(#i)"/><path d="m522.063 89.505-35.179 7.71-94.934 96.381 36.142-8.675 93.971-95.416Z" stroke="url(#j)"/><path d="m461.343 198.897-32.287-13.976 93.007-95.898 53.49-9.156-114.21 119.03Z" stroke="url(#k)"/><path d="M424.719 206.125 544.23 85.65" stroke="url(#l)"/><path fill-rule="evenodd" clip-rule="evenodd" d="m595.218 195.218 16.499-17.941 31.197-3.476 1.932 15.038-49.628 6.379Zm-4.346 1.22-.038.04.049.047.194 1.51 56.21-7.224.01.045.05-.053.045-.006-.005-.035 19.829-20.736-.042.002-7.22-56.173-7.837 1.007-48.178 5.841-20.084 21.14.002.01v.002l7.015 54.583Zm1.947-2.099-6.493-50.518 19.83-2.549 4.367 33.979-17.704 19.088Zm52.493-23.778 19.318-2.482-6.503-50.594-17.702 18.974 4.887 34.102Zm10.808-53.928-17.788 18.219-30.208 3.882-2.001-15.566 7.489-1.072 42.508-5.463Zm-52.153 7.605 1.9 14.786-17.827 2.291 15.927-17.077Zm59.668 46.8-17.972 2.406 1.662 14.338 16.31-16.744Zm-25.431-33.885 4.339 33.764-29.791 3.829-4.339-33.764 29.791-3.829Z" fill="url(#m)"/><path fill-rule="evenodd" clip-rule="evenodd" d="m128.751 339.078 10.13-8.524 17.047.288v8.236h-27.177Zm-2.427.356-.023.019.023.029v.827h30.783l.002.024.031-.024h.024v-.02l12.118-9.798-.023-.002v-30.762h-4.291l-26.36-.189-12.284 9.998v29.898Zm1.195-.996v-27.665h10.859v18.607l-10.859 9.058Zm29.926-9.175h10.579v-27.707l-10.851 8.996.272 18.711Zm9.556-28.305-10.844 8.584h-16.543v-8.525l4.109-.059h23.278Zm-28.623.486v8.098h-9.763l9.763-8.098Zm28.905 29.344-9.848.052-.098 7.839 9.946-7.891Zm-11.355-20.015v18.49h-16.314v-18.49h16.314Z" fill="url(#n)"/><path fill-rule="evenodd" clip-rule="evenodd" d="m59.885 205.797-.183.933-1.137-.224.523-2.659 2.658.524-.223 1.136-.44-.086 1.197 1.42-.886.747-1.509-1.791Zm11.11 11.385-4.358-5.17-.886.746 4.358 5.171.886-.747Zm43.038-.179-1.999-2.712-1.151-.219-1.637-.316-.224 1.137 1.645.296-.056.352-.312 1.697 1.139.21.259-1.406 1.453 1.711.883-.75Zm-38.681 5.349 1.517 2.587 2.673.544-.197 1.182-1.894-.21-.263 1.34-1.138-.224.25-1.268-1.834-3.204.886-.747Zm42.284.684 4.486 5.283.883-.75-4.486-5.283-.883.75Zm-16.941 6.458-5.22-1.056-.23 1.136 5.22 1.056.23-1.136Zm6.907 8.81.959-5.214-1.14-.209-.959 5.214 1.14.209Zm13.975-4.587-5.221-1.056-.229 1.136 5.22 1.056.23-1.136Zm5.031-.115 1.161 1.367-.971-.196-.27 1.235 1.853.283-.299 1.519 1.137.223.538-2.614-2.265-2.567-.884.75Zm-20.924 15.13.959-5.214-1.14-.209-.959 5.214 1.14.209Zm-57.023 8.291 1.823 2.808.865-.772-1.22-1.747 1.155.227.224-1.137-1.522-.3.3-1.521-1.137-.224-.514 2.61-.007.003.005.009-.007.037.035.007Zm55.105 2.137.959-5.214-1.14-.209-.959 5.214 1.14.209Zm-48.683 5.825 4.6 5.154.864-.772-4.6-5.154-.864.772Zm47 1.024-.161.874 2.465 2.271-.894.737-2.735-2.617-1.622-.319.223-1.137 1.522.299.064-.325.268-1.46 1.14.21-.051.274.015.003-.234 1.19Zm-36.937 8.512-.865.772 1.834 2.765-.003.023.034.007 3.296.696.28-1.239-2.241-.438.303-2.129-1.137-.224-.273 1.7-1.228-1.933Zm47.972 5.215-4.366-5.291-.893.737 4.365 5.292.894-.738Zm5.397 6.693-1.032-1.402-.894.738.996 1.264-.74-.146-.224 1.137 2.659.523.523-2.658-1.137-.224-.151.768ZM72.38 206.463l-5.317-1.046-.224 1.137 5.317 1.046.224-1.137Zm5.317 1.046-.224 1.137 5.317 1.046.224-1.137-5.317-1.046Zm10.633 2.093-.223 1.137 5.317 1.046.223-1.137-5.317-1.046Zm10.634 2.092-.224 1.137 5.317 1.046.224-1.137-5.317-1.046Zm11.723 10.591-1.137-.224-1.046 5.317 1.137.224 1.046-5.317Zm-16.868 43.623.224-1.136-5.317-1.047-.224 1.137 5.317 1.046Zm-10.634-2.092.224-1.137-5.317-1.046-.224 1.137 5.317 1.046Zm-10.633-2.092.223-1.137-5.317-1.046-.223 1.136 5.317 1.047Zm-10.634-2.093.224-1.137-5.317-1.046-.224 1.137 5.317 1.046ZM50.195 249.04l1.137.224 1.046-5.317-1.137-.223-1.046 5.316Zm2.093-10.633 1.137.223 1.046-5.316-1.137-.224-1.047 5.317Zm2.092-10.634 1.137.224 1.046-5.317-1.137-.224-1.046 5.317Zm2.092-10.633 1.137.223 1.047-5.317-1.137-.223-1.047 5.317Zm33.394 10.388-5.317-1.046-.224 1.137 5.317 1.046.224-1.137Zm15.95 3.139-.223 1.137 5.316 1.046.224-1.137-5.317-1.046Zm22.357 12.683-1.137-.224-1.046 5.317 1.136.224 1.047-5.317Zm-2.093 10.634-1.137-.224-1.046 5.317 1.137.223 1.046-5.316Zm-2.092 10.633-1.137-.223-1.046 5.316 1.137.224 1.046-5.317Zm-2.093 10.634-1.137-.224-1.046 5.317 1.137.224 1.046-5.317Zm-10.59 11.723.223-1.137-5.317-1.046-.223 1.137 5.317 1.046Zm-10.634-2.093.224-1.137-5.317-1.046-.224 1.137 5.317 1.046Zm-10.634-2.092.224-1.137-5.317-1.046-.224 1.137 5.317 1.046Zm-10.633-2.092.223-1.137-5.317-1.047-.223 1.137 5.317 1.047ZM67.68 270.106l1.137.223 1.046-5.316-1.137-.224-1.046 5.317Zm2.092-10.634 1.137.224 1.046-5.317-1.136-.224-1.047 5.317Zm2.093-10.634 1.137.224 1.046-5.317-1.137-.223-1.046 5.316Zm2.092-10.633 1.137.223 1.046-5.316-1.137-.224-1.046 5.317Z" fill="url(#o)"/><defs><linearGradient id="b" x1="196.777" y1="392.619" x2="440.459" y2="157.605" gradientUnits="userSpaceOnUse"><stop stop-color="#9A75E9"/><stop offset="1" stop-color="#85FBC2"/></linearGradient><linearGradient id="c" x1="147.623" y1="248.532" x2="212.875" y2="88.092" gradientUnits="userSpaceOnUse"><stop stop-color="#9A75E9"/><stop offset="1" stop-color="#85FBC2"/></linearGradient><linearGradient id="d" x1="191.476" y1="400.812" x2="349.668" y2="216.89" gradientUnits="userSpaceOnUse"><stop stop-color="#9A75E9"/><stop offset="1" stop-color="#85FBC2"/></linearGradient><linearGradient id="e" x1="410.261" y1="277.928" x2="438.228" y2="229.507" gradientUnits="userSpaceOnUse"><stop stop-color="#9A75E9"/><stop offset="1" stop-color="#85FBC2"/></linearGradient><linearGradient id="f" x1="445.92" y1="324.672" x2="504.437" y2="191.323" gradientUnits="userSpaceOnUse"><stop stop-color="#9A75E9"/><stop offset="1" stop-color="#85FBC2"/></linearGradient><linearGradient id="g" x1="410.259" y1="332.864" x2="454.509" y2="222.405" gradientUnits="userSpaceOnUse"><stop stop-color="#9A75E9"/><stop offset="1" stop-color="#85FBC2"/></linearGradient><linearGradient id="h" x1="434.836" y1="320.335" x2="483.17" y2="206.975" gradientUnits="userSpaceOnUse"><stop stop-color="#9A75E9"/><stop offset="1" stop-color="#85FBC2"/></linearGradient><linearGradient id="i" x1="391.949" y1="206.125" x2="403.311" y2="168.074" gradientUnits="userSpaceOnUse"><stop stop-color="#9A75E9"/><stop offset="1" stop-color="#85FBC2"/></linearGradient><linearGradient id="j" x1="391.948" y1="193.595" x2="493.5" y2="66.655" gradientUnits="userSpaceOnUse"><stop stop-color="#9A75E9"/><stop offset="1" stop-color="#85FBC2"/></linearGradient><linearGradient id="k" x1="429.054" y1="198.896" x2="545.563" y2="55.5" gradientUnits="userSpaceOnUse"><stop stop-color="#9A75E9"/><stop offset="1" stop-color="#85FBC2"/></linearGradient><linearGradient id="l" x1="424.717" y1="206.124" x2="545.188" y2="86.616" gradientUnits="userSpaceOnUse"><stop stop-color="#9A75E9"/><stop offset="1" stop-color="#85FBC2"/></linearGradient><linearGradient id="m" x1="591.039" y1="198.085" x2="655.36" y2="110.145" gradientUnits="userSpaceOnUse"><stop stop-color="#9A75E9"/><stop offset="1" stop-color="#85FBC2"/></linearGradient><linearGradient id="n" x1="126.301" y1="340.333" x2="167.041" y2="297.41" gradientUnits="userSpaceOnUse"><stop stop-color="#9A75E9"/><stop offset="1" stop-color="#85FBC2"/></linearGradient><linearGradient id="o" x1="40.999" y1="271.352" x2="132.384" y2="213.254" gradientUnits="userSpaceOnUse"><stop stop-color="#9A75E9"/><stop offset="1" stop-color="#85FBC2"/></linearGradient><radialGradient id="a" cx="0" cy="0" r="1" gradientUnits="userSpaceOnUse" gradientTransform="matrix(-102.70958 240.92741 -315.5062 -134.50321 383 240.928)"><stop stop-color="#24333E"/><stop offset="1" stop-color="#121B22" stop-opacity="0"/></radialGradient></defs></svg>
