<svg width="512" height="512" viewBox="0 0 512 512" fill="none" xmlns="http://www.w3.org/2000/svg">
<path fill-rule="evenodd" clip-rule="evenodd" d="M207.954 426.797L207.954 426.784L207.954 426.778C207.898 420.749 207.826 412.958 207.774 403.977C153.369 416.092 141.89 377.088 141.89 377.088C132.992 353.918 120.168 347.75 120.168 347.75C102.41 335.303 121.513 335.561 121.513 335.561C141.145 336.977 151.472 356.232 151.472 356.232C168.918 386.876 197.244 378.036 208.399 372.902C210.176 359.938 215.231 351.098 220.814 346.088C177.384 341.027 131.72 323.816 131.72 246.967C131.72 225.077 139.344 207.175 151.856 193.153C149.851 188.08 143.127 167.692 153.777 140.077C153.777 140.077 170.203 134.685 207.558 160.638C223.156 156.193 239.894 153.952 256.536 153.878C273.143 153.952 289.869 156.193 305.502 160.638C342.833 134.685 359.236 140.077 359.236 140.077C369.91 167.68 363.198 188.068 361.181 193.153C373.716 207.175 381.281 225.077 381.281 246.967C381.281 324.013 335.545 340.966 291.97 345.927C299.006 352.12 305.25 364.358 305.25 383.072C305.25 401.006 305.138 416.622 305.063 426.965L305.063 426.978C305.026 432.093 304.998 435.917 304.998 438.092C304.998 443.46 308.528 449.69 318.458 447.732C396.11 421.164 452.101 346.038 452.101 257.468C452.101 146.701 364.519 56.9121 256.5 56.9121C148.494 56.9121 60.9121 146.701 60.9121 257.468C60.9241 346.063 116.963 421.238 194.686 447.757C204.46 449.591 208.039 443.399 208.039 438.092C208.039 435.886 208.003 431.998 207.954 426.797ZM256.5 505C117.048 505 4 391.952 4 252.5C4 113.048 117.048 0 256.5 0C395.952 0 509 113.048 509 252.5C509 391.952 395.952 505 256.5 505Z" fill="black"/>
</svg>
