<svg xmlns="http://www.w3.org/2000/svg" fill="none" viewBox="0 0 24 24">
    <path fill="#fff" fill-rule="evenodd"
          d="M12.01.48C5.369.48 0 5.76 0 12.292c0 5.222 3.44 9.641 8.212 11.206.597.117.815-.255.815-.567 0-.274-.02-1.213-.02-2.19-3.34.703-4.036-1.409-4.036-1.409-.537-1.369-1.332-1.72-1.332-1.72-1.094-.724.08-.724.08-.724 1.212.078 1.849 1.212 1.849 1.212 1.073 1.8 2.803 1.291 3.5.978.098-.763.417-1.29.755-1.584-2.665-.274-5.468-1.29-5.468-5.828 0-1.29.477-2.347 1.232-3.168-.119-.293-.537-1.506.12-3.129 0 0 1.014-.313 3.3 1.213a11.81 11.81 0 0 1 3.003-.392c1.014 0 2.048.137 3.002.392 2.287-1.526 3.301-1.213 3.301-1.213.657 1.623.239 2.836.12 3.13.775.82 1.232 1.876 1.232 3.167 0 4.537-2.803 5.535-5.488 5.828.438.372.815 1.076.815 2.19 0 1.584-.02 2.855-.02 3.246 0 .313.22.685.816.568C20.56 21.933 24 17.513 24 12.292 24.02 5.76 18.63.48 12.01.48Z"
          clip-rule="evenodd"/>
</svg>
