<svg width="512" height="512" viewBox="0 0 512 512" fill="none" xmlns="http://www.w3.org/2000/svg">
<path fill-rule="evenodd" clip-rule="evenodd" d="M207.358 430.642L207.358 430.63L207.358 430.623C207.302 424.582 207.23 416.776 207.178 407.777C152.665 419.915 141.163 380.835 141.163 380.835C132.248 357.619 119.399 351.438 119.399 351.438C101.604 338.967 120.746 339.226 120.746 339.226C140.417 340.644 150.764 359.938 150.764 359.938C168.245 390.642 196.627 381.785 207.804 376.641C209.584 363.651 214.649 354.794 220.244 349.773C176.727 344.703 130.973 327.457 130.973 250.456C130.973 228.522 138.612 210.586 151.149 196.535C149.14 191.453 142.402 171.024 153.074 143.354C153.074 143.354 169.532 137.951 206.961 163.956C222.59 159.502 239.361 157.257 256.036 157.183C272.676 157.257 289.435 159.502 305.1 163.956C342.504 137.951 358.939 143.354 358.939 143.354C369.635 171.012 362.909 191.44 360.888 196.535C373.449 210.586 381.028 228.522 381.028 250.456C381.028 327.654 335.201 344.641 291.54 349.612C298.591 355.818 304.847 368.08 304.847 386.83C304.847 404.8 304.734 420.447 304.659 430.81L304.659 430.824C304.622 435.949 304.594 439.78 304.594 441.96C304.594 447.338 308.131 453.58 318.081 451.619C395.887 424.998 451.988 349.724 451.988 260.978C451.988 149.991 364.233 60.0248 256 60.0248C147.78 60.0248 60.0248 149.991 60.0248 260.978C60.0368 349.748 116.186 425.072 194.064 451.644C203.857 453.482 207.443 447.277 207.443 441.96C207.443 439.749 207.406 435.854 207.358 430.642ZM256 509C116.272 509 3 395.728 3 256C3 116.272 116.272 3 256 3C395.728 3 509 116.272 509 256C509 395.728 395.728 509 256 509Z" fill="black"/>
</svg>
