<svg viewBox="0 0 98 98" fill="none" xmlns="http://www.w3.org/2000/svg"><mask id="a" style="mask-type:alpha" maskUnits="userSpaceOnUse" x="0" y="0" width="98" height="98"><path fill="#D9D9D9" d="M0 0h98v98H0z"/></mask><g mask="url(#a)"><path d="M28.333 69.417h28.584V61.25H28.333v8.167Zm0-16.334h40.834v-8.166H28.333v8.166Zm0-16.333h40.834v-8.167H28.333v8.167Zm-8.166 49c-2.246 0-4.169-.8-5.768-2.399-1.6-1.6-2.399-3.522-2.399-5.768V20.417c0-2.246.8-4.169 2.399-5.768 1.6-1.6 3.522-2.399 5.768-2.399h57.166c2.246 0 4.169.8 5.768 2.399 1.6 1.6 2.399 3.522 2.399 5.768v57.166c0 2.246-.8 4.169-2.399 5.768-1.6 1.6-3.522 2.399-5.768 2.399H20.167Zm0-8.167h57.166V20.417H20.167v57.166Z" fill="#323E48"/></g></svg>