<svg xmlns="http://www.w3.org/2000/svg" fill="none" viewBox="0 0 125 23">
    <g fill="#fff" clip-path="url(#a)">
        <path d="M2.162.968H-.5V21.79h2.662V.968ZM24.833 0a11.19 11.19 0 1 0 11.19 11.19A11.2 11.2 0 0 0 24.834 0Zm0 19.654a8.467 8.467 0 1 1 0-16.935 8.467 8.467 0 0 1 0 16.935ZM90.534.968h-2.662V21.79h2.662V.968ZM113.311 0a11.188 11.188 0 0 0-10.339 6.908 11.189 11.189 0 0 0 8.155 15.258 11.192 11.192 0 0 0 13.374-10.976A11.2 11.2 0 0 0 113.311 0Zm0 19.654a8.466 8.466 0 0 1-5.986-14.457 8.462 8.462 0 0 1 9.229-1.833 8.468 8.468 0 0 1 5.224 7.827 8.47 8.47 0 0 1-8.467 8.463ZM46.747.728h-4.861l15.281 10.411-15.632 10.654h4.857l13.204-8.996 2.428-1.658-2.428-1.653L46.747.728ZM62.647 14.941l10.06 6.853h4.836l-12.477-8.502-2.42 1.65ZM77.192.728h-4.84l-9.706 6.615 2.42 1.65L77.192.727Z"/>
    </g>
    <defs>
        <clipPath id="a">
            <path fill="#fff" d="M0 0h125v22.377H0z"/>
        </clipPath>
    </defs>
</svg>
