<svg xmlns="http://www.w3.org/2000/svg" fill="none" viewBox="0 0 20 20">
    <g fill="#EEEFEC" clip-path="url(#a)">
        <path d="M19.731 3.814 13.908 9.6l5.823 5.785c.105-.22.17-.463.17-.723V4.537c0-.26-.065-.503-.17-.723ZM18.212 2.85H2.388c-.26 0-.503.064-.723.17l7.442 7.404a1.689 1.689 0 0 0 2.386 0l7.443-7.405a1.668 1.668 0 0 0-.724-.169ZM.87 3.814c-.106.22-.17.464-.17.723v10.125c0 .26.064.503.17.723L6.691 9.6.87 3.814Z"/>
        <path d="m13.113 10.396-.824.823a2.815 2.815 0 0 1-3.978 0l-.823-.823-5.823 5.785c.22.105.463.17.723.17h15.825c.26 0 .502-.065.723-.17l-5.823-5.786Z"/>
    </g>
    <defs>
        <clipPath id="a">
            <path fill="#fff" d="M.7 0h19.2v19.2H.7z"/>
        </clipPath>
    </defs>
</svg>
