<svg xmlns="http://www.w3.org/2000/svg" fill="none" viewBox="0 0 24 24">
    <g fill="#788996" clip-path="url(#a)">
        <path fill-rule="evenodd"
              d="M4.8 5.829c0-.569.46-1.029 1.028-1.029h3.086c.568 0 1.029.46 1.029 1.029v3.085c0 .568-.46 1.029-1.029 1.029H5.828c-.568 0-1.028-.46-1.028-1.029V5.83Zm2.057 2.057V6.857h1.029v1.029H6.857ZM4.8 15.086c0-.568.46-1.029 1.028-1.029h3.086c.568 0 1.029.46 1.029 1.029v3.085c0 .569-.46 1.029-1.029 1.029H5.828c-.568 0-1.028-.46-1.028-1.029v-3.085Zm2.057 2.057v-1.029h1.029v1.029H6.857ZM15.085 4.8c-.568 0-1.028.46-1.028 1.029v3.085c0 .568.46 1.029 1.028 1.029h3.086c.568 0 1.029-.46 1.029-1.029V5.83c0-.569-.46-1.029-1.029-1.029h-3.085Zm1.03 2.057v1.029h1.028V6.857h-1.029Z"
              clip-rule="evenodd"/>
        <path d="M13.028 5.829a1.029 1.029 0 1 0-2.057 0v1.028a1.029 1.029 0 0 0 2.057 0V5.83ZM12 8.914c.568 0 1.028.46 1.028 1.029v1.028h2.057a1.029 1.029 0 1 1 0 2.058H12c-.568 0-1.029-.46-1.029-1.029V9.943c0-.568.46-1.029 1.029-1.029ZM18.171 10.971a1.029 1.029 0 1 0 0 2.058 1.029 1.029 0 0 0 0-2.058ZM10.971 15.086c0-.568.46-1.029 1.029-1.029h1.028a1.029 1.029 0 0 1 0 2.057v2.057a1.029 1.029 0 1 1-2.057 0v-3.085ZM8.914 13.029a1.029 1.029 0 0 0 0-2.058H5.828a1.029 1.029 0 1 0 0 2.058h3.086ZM19.2 15.086c0 .568-.46 1.028-1.029 1.028h-2.057a1.029 1.029 0 1 1 0-2.057h2.057c.568 0 1.029.46 1.029 1.029ZM18.171 19.2a1.029 1.029 0 1 0 0-2.057h-3.085a1.029 1.029 0 0 0 0 2.057h3.085Z"/>
        <path stroke="#788996" stroke-width=".4"
              d="M19.248 22.732c0 .148.12.268.268.268h1.93c.858 0 1.554-.696 1.554-1.554V19.55a.268.268 0 1 0-.535 0v1.896c0 .563-.456 1.019-1.019 1.019h-1.93a.268.268 0 0 0-.267.267Zm0-21.464c0 .148.12.267.268.267h1.93c.563 0 1.019.457 1.019 1.02v1.963a.268.268 0 1 0 .535 0V2.554C23 1.696 22.304 1 21.446 1h-1.93a.268.268 0 0 0-.267.268Zm-14.496 0A.268.268 0 0 0 4.484 1h-1.93C1.696 1 1 1.696 1 2.554v1.964a.268.268 0 1 0 .536 0V2.554c0-.562.456-1.019 1.018-1.019h1.93c.148 0 .268-.12.268-.267Zm0 21.464a.268.268 0 0 0-.268-.267h-1.93a1.019 1.019 0 0 1-1.018-1.02V19.55a.268.268 0 1 0-.536 0v1.896C1 22.304 1.696 23 2.554 23h1.93c.148 0 .268-.12.268-.268Z"/>
    </g>
    <defs>
        <clipPath id="a">
            <path fill="#fff" d="M0 0h24v24H0z"/>
        </clipPath>
    </defs>
</svg>
