<svg xmlns="http://www.w3.org/2000/svg" fill="none" viewBox="0 0 20 20">
    <g clip-path="url(#a)">
        <path fill="#E91E63"
              d="M7.574 10.12a2.017 2.017 0 0 0-2.016 2.018v5.045a2.017 2.017 0 0 0 4.033 0v-5.045a2.018 2.018 0 0 0-2.017-2.017ZM.515 12.137a2.019 2.019 0 0 0 4.037 0V10.12H2.534a2.019 2.019 0 0 0-2.019 2.018Z"/>
        <path fill="#00BCD4"
              d="M7.577 0h-.002a2.019 2.019 0 0 0 0 4.036H9.59V2.014A2.015 2.015 0 0 0 7.577-.001ZM2.52 9.096h5.054a2.019 2.019 0 0 0 0-4.037H2.52a2.019 2.019 0 0 0 0 4.037Z"/>
        <path fill="#4CAF50"
              d="M17.666 5.058a2.014 2.014 0 0 0-2.015 2.015v2.022h2.017a2.019 2.019 0 0 0 0-4.037h-.002ZM10.613 2.018v5.06a2.017 2.017 0 0 0 4.033 0v-5.06a2.017 2.017 0 0 0-4.033 0Z"/>
        <path fill="#FF9800"
              d="M14.645 17.18a2.017 2.017 0 0 0-2.016-2.016h-2.017v2.019a2.017 2.017 0 0 0 4.033-.002ZM17.683 10.12H12.63a2.019 2.019 0 0 0 0 4.036h5.054a2.019 2.019 0 0 0 0-4.037Z"/>
    </g>
    <defs>
        <clipPath id="a">
            <path fill="#fff" d="M.5 0h19.2v19.2H.5z"/>
        </clipPath>
    </defs>
</svg>
