<svg fill="none" viewBox="0 0 98 98" xmlns="http://www.w3.org/2000/svg"><mask id="a" style="mask-type:alpha" maskUnits="userSpaceOnUse" x="3" y="3" width="92" height="92"><path fill="#D9D9D9" d="M3 3h92v92H3z"/></mask><g mask="url(#a)"><path d="m39.75 66.583 26.833-17.25-26.833-17.25v34.5Zm9.583 21.084c-5.302 0-10.286-1.007-14.95-3.02-4.664-2.012-8.72-4.743-12.17-8.193-3.45-3.45-6.182-7.507-8.194-12.17C12.006 59.618 11 54.635 11 49.333c0-5.303 1.006-10.287 3.019-14.95 2.012-4.665 4.743-8.721 8.193-12.172 3.45-3.45 7.507-6.18 12.171-8.193S44.031 11 49.333 11c5.303 0 10.286 1.006 14.95 3.019 4.664 2.012 8.721 4.743 12.171 8.193 3.45 3.45 6.181 7.507 8.194 12.171 2.012 4.664 3.019 9.648 3.019 14.95 0 5.303-1.007 10.286-3.02 14.95-2.012 4.664-4.743 8.721-8.193 12.171-3.45 3.45-7.507 6.181-12.17 8.194-4.665 2.012-9.648 3.019-14.95 3.019Zm0-7.667c8.561 0 15.813-2.97 21.755-8.912C77.029 65.145 80 57.894 80 49.333c0-8.56-2.97-15.812-8.912-21.754-5.942-5.942-13.194-8.912-21.755-8.912-8.56 0-15.812 2.97-21.754 8.912-5.942 5.942-8.912 13.193-8.912 21.754 0 8.561 2.97 15.813 8.912 21.755C33.521 77.029 40.772 80 49.333 80Z" fill="#323E48"/></g></svg>