<svg xmlns="http://www.w3.org/2000/svg" version="1.1" xmlns:xlink="http://www.w3.org/1999/xlink" xmlns:svgjs="http://svgjs.dev/svgjs" width="152" height="172"><svg width="152" height="172" viewBox="0 0 152 172" fill="none" xmlns="http://www.w3.org/2000/svg">
<path d="M1.32642 41.9086L74.6665 2.18274L150.626 41.9086V130.528L74.6665 171.127L1.32642 130.528V41.9086Z" fill="#0F233D"></path>
<path fill-rule="evenodd" clip-rule="evenodd" d="M74.0002 169.941V82.0029H77.6258V169.941H74.0002Z" fill="white"></path>
<path fill-rule="evenodd" clip-rule="evenodd" d="M0.965576 43.4903L2.69343 40.303L75.813 79.9408L148.933 40.303L150.66 43.4903L75.813 84.0648L0.965576 43.4903Z" fill="white"></path>
<path fill-rule="evenodd" clip-rule="evenodd" d="M75.8131 0L151.609 40.8102V131.186L75.8131 172L0.0168457 131.186V40.8102L75.8131 0ZM3.64242 42.9759V129.021L75.8131 167.882L147.984 129.021V42.9759L75.8131 4.1177L3.64242 42.9759Z" fill="white"></path>
<path d="M86.7548 66.9676L68.2644 55.1265L71.7087 53.2702L90.2209 65.1476L86.7548 66.9676ZM93.3244 63.4943L81.7733 47.8572L85.1161 46.0625L96.6563 61.7432L93.3244 63.4943ZM114.28 52.9113C113.798 53.1672 113.303 53.3983 112.797 53.6037C112.292 53.8095 111.776 53.9898 111.253 54.144C110.727 54.3035 110.194 54.4376 109.647 54.5464C109.099 54.6552 108.559 54.7422 107.979 54.8038C107.399 54.8654 106.844 54.9017 106.282 54.9162C105.72 54.9307 105.158 54.9162 104.607 54.8908C104.056 54.8654 103.483 54.8002 102.921 54.7168C102.359 54.6334 101.801 54.5283 101.243 54.3977C100.684 54.2672 100.137 54.1149 99.5966 53.9409C99.0564 53.7669 98.5343 53.5784 98.0231 53.3536C97.5119 53.1288 97.008 52.9004 96.5149 52.6285C96.0218 52.3565 95.5432 52.0846 95.0647 51.7837C94.6144 51.5018 94.18 51.1956 93.7631 50.8664C93.3817 50.5694 93.0185 50.2498 92.6754 49.9093C92.3678 49.6017 92.0831 49.2721 91.8234 48.9231C91.5851 48.6017 91.3741 48.2609 91.1925 47.9043C91.0284 47.5753 90.8984 47.2302 90.8046 46.8747C90.7161 46.5419 90.6662 46.2001 90.656 45.8559C90.6478 45.5184 90.6807 45.1812 90.7538 44.8516C90.8303 44.5061 90.9458 44.1703 91.0983 43.8509C91.2604 43.5083 91.4585 43.1838 91.6892 42.8829C91.9403 42.5537 92.2206 42.248 92.5267 41.9693C92.8684 41.6574 93.2319 41.3702 93.6144 41.11C94.0415 40.8152 94.4845 40.5441 94.9414 40.2979C95.9082 39.7789 96.9249 39.3587 97.976 39.0434C98.5103 38.8832 99.0524 38.7501 99.6002 38.6446C100.155 38.5359 100.713 38.4525 101.286 38.3945C101.859 38.3364 102.432 38.3038 103.005 38.2929C103.578 38.2821 104.15 38.2929 104.72 38.3401C105.289 38.3872 105.862 38.4416 106.431 38.5286C107 38.6156 107.569 38.7244 108.138 38.8658C108.708 39.0072 109.262 39.1595 109.806 39.3407C110.35 39.522 110.894 39.7214 111.398 39.9426C111.902 40.1637 112.424 40.4067 112.917 40.6677C113.41 40.9287 113.892 41.2188 114.367 41.527C114.842 41.8351 115.266 42.1469 115.662 42.4624C116.035 42.7629 116.391 43.085 116.727 43.4268C117.03 43.7345 117.31 44.0641 117.565 44.4129C117.797 44.7328 118.001 45.0725 118.174 45.4281C118.329 45.7544 118.451 46.0958 118.537 46.4469C118.619 46.7765 118.662 47.1149 118.664 47.4548C118.665 47.7908 118.624 48.1256 118.544 48.4518C118.46 48.7918 118.338 49.1213 118.181 49.4343C118.011 49.7708 117.807 50.0891 117.572 50.3842C117.315 50.7071 117.031 51.0078 116.724 51.2834C116.381 51.5892 116.017 51.8714 115.636 52.1281C115.2 52.416 114.749 52.6799 114.284 52.9185L114.28 52.9113ZM111.249 50.968C111.537 50.8175 111.815 50.6504 112.083 50.4676C112.322 50.3044 112.549 50.1239 112.761 49.9274C112.952 49.7517 113.127 49.5588 113.283 49.3509C113.425 49.1598 113.546 48.9545 113.646 48.7382C113.74 48.5334 113.809 48.3179 113.852 48.0965C113.893 47.8815 113.906 47.6622 113.892 47.4439C113.877 47.2175 113.836 46.9937 113.769 46.7768C113.695 46.5404 113.598 46.3121 113.479 46.0952C113.348 45.856 113.198 45.628 113.029 45.4136C112.844 45.1768 112.643 44.9528 112.428 44.7428C112.188 44.5082 111.937 44.2867 111.673 44.0794C111.394 43.8618 111.093 43.6443 110.763 43.4268C110.433 43.2092 110.1 43.0098 109.755 42.8249C109.411 42.64 109.067 42.4624 108.711 42.3101C108.357 42.1456 107.994 42.0016 107.624 41.8786C107.261 41.7481 106.899 41.6357 106.503 41.5342C106.108 41.4327 105.738 41.3493 105.369 41.284C104.999 41.2188 104.611 41.1644 104.234 41.1281C103.857 41.0919 103.48 41.0701 103.103 41.0629C102.725 41.0556 102.352 41.0629 101.979 41.1028C101.614 41.1288 101.25 41.176 100.891 41.2442C100.539 41.3063 100.191 41.3861 99.8468 41.4834C99.1778 41.672 98.5312 41.9321 97.918 42.2593C97.6308 42.4107 97.3534 42.5803 97.0877 42.7669C96.8517 42.9294 96.6287 43.11 96.4206 43.3071C96.2345 43.4855 96.0668 43.6823 95.9203 43.8945C95.7844 44.0887 95.6712 44.298 95.5831 44.5181C95.4996 44.728 95.4412 44.947 95.4091 45.1707C95.3819 45.3922 95.3819 45.6162 95.4091 45.8378C95.433 46.0683 95.4816 46.2956 95.5541 46.5157C95.6338 46.7556 95.7358 46.9874 95.8587 47.2082C95.9943 47.4512 96.1495 47.6828 96.3227 47.9007C96.5117 48.14 96.7164 48.3665 96.9355 48.5787C97.1771 48.8135 97.4312 49.0349 97.6968 49.2422C97.976 49.4597 98.2805 49.6736 98.6068 49.8875C98.9331 50.1014 99.2703 50.2972 99.6111 50.4821C99.9519 50.667 100.296 50.8447 100.648 50.9897C101.003 51.1496 101.366 51.29 101.736 51.4103C102.098 51.5372 102.461 51.6496 102.823 51.7438C103.186 51.8381 103.57 51.9179 103.94 51.9831C104.31 52.0484 104.665 52.0955 105.049 52.1281C105.434 52.1608 105.775 52.1753 106.137 52.1753C106.5 52.1753 106.862 52.1753 107.225 52.1245C107.587 52.0738 107.95 52.0411 108.312 51.9759C108.658 51.9122 109.001 51.8311 109.339 51.7329C109.67 51.636 109.997 51.5222 110.317 51.3921C110.626 51.2679 110.927 51.1275 111.22 50.9716L111.249 50.968Z" fill="#3CB08E"></path>
</svg><style>@media (prefers-color-scheme: light) { :root { filter: none; } }
@media (prefers-color-scheme: dark) { :root { filter: contrast(0.8333333333333334) brightness(1.7); } }
</style></svg>
